<?xml version="1.0" standalone="no"?><!DOCTYPE svg PUBLIC "-//W3C//DTD SVG 1.1//EN" "http://www.w3.org/Graphics/SVG/1.1/DTD/svg11.dtd"><svg class="icon" height="512" viewBox="0 0 1024 1024" version="1.1" xmlns="http://www.w3.org/2000/svg"><path d="M374.359539 336.269673c0-50.870598 13.406897-169.175027 137.631251-169.175027 119.755388 0 137.631251 105.990986 137.631251 169.175027l0 37.262672 103.223182 0 0-37.262672c0-165.479869-94.554391-272.393877-240.854433-272.393877s-240.854433 106.915032-240.854433 272.393877l0 37.262672 103.223182 0L374.359539 336.269673zM752.854433 407.945109 271.145567 407.945109c-56.987244 0-103.223182 46.235021-103.223182 103.21885l0 344.063173c0 56.986899 46.235938 103.21885 103.223182 103.21885l481.708865 0c56.988267 0 103.223182-46.231951 103.223182-103.21885L856.077615 511.163959C856.077615 454.18013 809.8427 407.945109 752.854433 407.945109zM546.407045 708.060351l0 78.353532c0 18.950607-15.456666 34.406624-34.408068 34.406624-18.952426 0-34.408068-15.454994-34.408068-34.406624l0-78.353532c-20.497683-11.92868-34.408068-33.869389-34.408068-59.271942 0-38.001499 30.810996-68.812225 68.815114-68.812225 38.002071 0 68.815114 30.810726 68.815114 68.812225C580.815114 674.190963 566.903705 696.131671 546.407045 708.060351z" /></svg>